<?xml version="1.0" encoding="UTF-8"?>
<svg version="1.1" xmlns="http://www.w3.org/2000/svg" width="1000" height="1000">
<path d="M0 0 C-0.26037884 6.9236658 -0.52757864 13.84704403 -0.79956055 20.77026367 C-0.89130865 23.12632251 -0.98148526 25.48244309 -1.07006836 27.83862305 C-1.19754204 31.22201657 -1.33063428 34.60514906 -1.46484375 37.98828125 C-1.50343002 39.04461258 -1.5420163 40.10094391 -1.58177185 41.18928528 C-1.64172081 42.66047066 -1.64172081 42.66047066 -1.70288086 44.16137695 C-1.73619003 45.02519485 -1.76949921 45.88901276 -1.80381775 46.77900696 C-2 49 -2 49 -3 52 C-44.07217724 53.64627955 -85.15051979 54.83835968 -126.24057245 55.92558169 C-133.00603627 56.10477936 -139.77141499 56.28703886 -146.5367763 56.47006047 C-154.75766584 56.69242937 -162.97860935 56.91274992 -171.19957066 57.13244772 C-173.52779703 57.19480156 -175.85601305 57.25753035 -178.18422699 57.32034683 C-181.82590233 57.4184978 -185.46761205 57.5152626 -189.10935211 57.61098099 C-191.06071776 57.66256743 -193.01204918 57.71544372 -194.96337891 57.76837158 C-201.64423091 57.94241441 -208.31686225 58.04635955 -215 58 C-214.83201904 59.07580322 -214.66403809 60.15160645 -214.4909668 61.26000977 C-211.94450485 78.07225248 -210.16450348 94.96710672 -208.35571289 111.87084961 C-207.89981187 116.13110927 -207.43767759 120.39066671 -206.97377491 124.65006161 C-206.61368624 127.96211205 -206.25668839 131.27448996 -205.90064049 134.58697701 C-205.73131613 136.15908261 -205.56107548 137.73108983 -205.3898716 139.30299187 C-205.15237931 141.48804961 -204.91903142 143.67351199 -204.68676758 145.85913086 C-204.55369705 147.09706894 -204.42062653 148.33500702 -204.28352356 149.61045837 C-204.02001398 152.76073166 -203.94689939 155.84078769 -204 159 C-203.01 158.67 -202.02 158.34 -201 158 C-191.96721847 156.78355091 -182.83006462 156.81372005 -173.7331543 156.81469727 C-171.40981681 156.8124735 -169.08692815 156.79413638 -166.76367188 156.77539062 C-165.27864744 156.77246237 -163.79362078 156.77047378 -162.30859375 156.76953125 C-161.61801376 156.76234573 -160.92743378 156.75516022 -160.21592712 156.74775696 C-156.57465988 156.76521374 -155.12073444 156.91951038 -152 159 C-151.56762695 161.59326172 -151.56762695 161.59326172 -151.48828125 164.9296875 C-151.45275146 166.18394531 -151.41722168 167.43820312 -151.38061523 168.73046875 C-151.35733313 170.11196956 -151.33464334 171.49348047 -151.3125 172.875 C-151.27952446 174.29038338 -151.24573818 175.70574809 -151.21118164 177.12109375 C-150.83882758 193.74342305 -150.90567095 210.37486697 -151 227 C-155.14033164 226.87944545 -159.2805302 226.755125 -163.4206543 226.62768555 C-164.82166671 226.58504673 -166.22270795 226.54334201 -167.6237793 226.50268555 C-169.66724273 226.44320997 -171.71056984 226.38008259 -173.75390625 226.31640625 C-174.97408447 226.27974854 -176.1942627 226.24309082 -177.45141602 226.20532227 C-183.97483141 225.95434145 -190.48795686 225.45199408 -197 225 C-196.85538078 226.27065056 -196.85538078 226.27065056 -196.70783997 227.56697083 C-196.22833834 231.78031686 -195.7489163 235.99367195 -195.26953125 240.20703125 C-195.17738405 241.01689106 -195.08523685 241.82675087 -194.99029732 242.66115189 C-193.82230317 252.92701087 -192.65550998 263.19300516 -191.49072266 273.45922852 C-191.1432147 276.52177843 -190.79569804 279.58432735 -190.44817352 282.64687538 C-190.20735778 284.76908493 -189.9665591 286.89129642 -189.72577667 289.01350975 C-188.0906414 303.42339008 -186.44885545 317.83249574 -184.80082226 332.24090672 C-183.5982082 342.75641949 -182.39916196 353.27233563 -181.20236683 363.78851223 C-180.46639589 370.25381628 -179.72855567 376.71889569 -178.98648071 383.1835022 C-178.28156184 389.3247908 -177.58140861 395.46660464 -176.88476372 401.60883713 C-176.62597497 403.8829387 -176.36544258 406.15684262 -176.10304451 408.43053055 C-175.7422345 411.55921291 -175.3877093 414.6885481 -175.03466797 417.81811523 C-174.92879773 418.72302609 -174.82292749 419.62793695 -174.71384907 420.56026936 C-174.09978269 426.07676336 -173.90709021 431.44893596 -174 437 C-184.30768848 439.57542964 -194.69845991 441.44274341 -205.16821289 443.21704102 C-207.957699 443.6909315 -210.7454461 444.17425651 -213.53320312 444.65820312 C-215.32281996 444.96410797 -217.1125303 445.26946637 -218.90234375 445.57421875 C-219.72741928 445.71792404 -220.55249481 445.86162933 -221.40257263 446.00968933 C-225.6558672 446.72251985 -229.6681539 447.15876331 -234 447 C-235.0943251 443.71702469 -235.3153363 440.93742573 -235.55995178 437.48347473 C-235.63238023 436.4835707 -235.63238023 436.4835707 -235.70627189 435.46346658 C-235.86787854 433.21913897 -236.02387738 430.97445635 -236.17993164 428.72973633 C-236.2950088 427.11558803 -236.41043113 425.5014643 -236.52617168 423.88736343 C-236.84221075 419.46608548 -237.15338898 415.04447681 -237.46376514 410.6227982 C-237.79459471 405.92162695 -238.12986981 401.22077271 -238.46466064 396.5198822 C-239.03688797 388.4768469 -239.60634648 380.4336195 -240.17398071 372.39025879 C-240.98864918 360.847387 -241.80855869 349.30489194 -242.62984121 337.76248908 C-245.13421865 302.56287789 -247.62578165 267.36237106 -250.09755898 232.1604557 C-250.83311201 221.69010876 -251.5713203 211.21995014 -252.3125 200.75 C-252.38966373 199.65993023 -252.46682747 198.56986046 -252.5463295 197.44675827 C-257.07269442 133.58035966 -262.40993943 69.78113846 -268 6 C-261.17618074 4.77129806 -254.36470958 4.75820333 -247.44580078 4.64282227 C-246.06732154 4.61670517 -244.68884964 4.59019824 -243.31038475 4.56333447 C-240.33754349 4.50622717 -237.36466931 4.45184758 -234.39173889 4.39958954 C-229.62382705 4.31575177 -224.85604192 4.22579461 -220.08825684 4.1350708 C-213.29091755 4.00631977 -206.4935327 3.88030096 -199.69610596 3.7562561 C-183.02888444 3.45190131 -166.36191405 3.13422357 -149.69496489 2.81534743 C-147.09099389 2.76557232 -144.48701979 2.71596245 -141.8830452 2.66637611 C-121.51457926 2.27801354 -101.14710215 1.86975439 -80.78125 1.359375 C-79.34111353 1.32328534 -79.34111353 1.32328534 -77.87188339 1.2864666 C-69.46265629 1.07437464 -61.05371043 0.85293391 -52.64502525 0.62036419 C-35.09183606 0.13617001 -17.56035609 -0.11547292 0 0 Z " fill="#FFFFFF" transform="translate(470,195)"/>
<path d="M0 0 C0.89673944 2.96453472 1.01190157 5.16436331 0.59765625 8.22265625 C-0.24043373 15.6067267 -0.37178496 23.0148903 -0.5625 30.4375 C-0.58401123 31.22724213 -0.60552246 32.01698425 -0.62768555 32.83065796 C-1.01359204 47.24638147 -1.04215589 61.65272329 -0.99002075 76.07263184 C-0.94229082 90.07737729 -1.18162494 104.01455473 -2 118 C-2.75667969 117.24074219 -3.51335937 116.48148437 -4.29296875 115.69921875 C-5.78476009 114.21173272 -7.28178112 112.72922118 -8.80078125 111.26953125 C-10.23804584 109.88426073 -11.62092884 108.443214 -13 107 C-13 106.34 -13 105.68 -13 105 C-13.66 105 -14.32 105 -15 105 C-16.375 103.6015625 -16.375 103.6015625 -18 101.625 C-29.46106602 87.94379596 -29.46106602 87.94379596 -44 78 C-53.30625261 87.93095472 -53.30625261 87.93095472 -62.34765625 98.1015625 C-64.26447425 100.30386403 -66.22510695 102.46321942 -68.1875 104.625 C-71.9143116 108.74678992 -75.52878987 112.95238633 -79.125 117.1875 C-82.78370262 121.49192349 -86.48664342 125.64340713 -90.5625 129.5625 C-92.24188446 131.19257862 -92.24188446 131.19257862 -94.4375 134 C-96.51330256 136.43020788 -98.45902556 138.32536333 -100.875 140.375 C-104.23117572 143.24459263 -107.10055463 146.2699199 -109.953125 149.6328125 C-112.56598235 152.65455211 -115.28067128 155.57422462 -118 158.5 C-121.78681902 162.58252836 -125.51768848 166.69771797 -129.16015625 170.91015625 C-131.56670156 173.64370559 -134.03303196 176.32114006 -136.5 179 C-139.53890177 182.30026876 -142.561561 185.60949347 -145.5 189 C-148.86187407 192.87661077 -152.33082672 196.65197903 -155.80371094 200.42871094 C-160.23880974 205.25344093 -164.63377158 210.11280114 -169 215 C-169.639375 215.71027344 -170.27875 216.42054688 -170.9375 217.15234375 C-174.59688687 221.26126737 -177.88224015 225.46507658 -181 230 C-187.00277507 229.45322277 -192.50128455 228.50870901 -198.2734375 226.8046875 C-199.4463736 226.46798538 -199.4463736 226.46798538 -200.64300537 226.1244812 C-203.22247749 225.3818486 -205.7987093 224.62858829 -208.375 223.875 C-210.19369663 223.34876162 -212.01254791 222.82305748 -213.83154297 222.29785156 C-219.8913661 220.54440744 -225.94599612 218.77341572 -232 217 C-233.13187744 216.66867065 -234.26375488 216.33734131 -235.42993164 215.99597168 C-251.29280092 211.35158634 -267.14902695 206.68481779 -283 202 C-286.74295817 212.15181753 -290.48370124 222.30444712 -294.22167969 232.45809937 C-296.0358051 237.38497988 -297.85374588 242.31041476 -299.67578125 247.234375 C-306.6431696 266.10184059 -313.38978163 285.04735933 -320.14477539 303.99169922 C-326.09235583 320.67016884 -332.06439068 337.33963471 -338.0625 354 C-338.44576447 355.06520874 -338.82902893 356.13041748 -339.22390747 357.22790527 C-340.30617774 360.23550328 -341.38924677 363.2428122 -342.47265625 366.25 C-342.78738892 367.12456848 -343.10212158 367.99913696 -343.4263916 368.90020752 C-344.00805212 370.51319476 -344.59554733 372.12409474 -345.18997192 373.73242188 C-345.73460671 375.25706276 -346.24065743 376.79598489 -346.709198 378.34570312 C-347.40795898 380.546875 -347.40795898 380.546875 -349 384 C-353.13851078 386.04823802 -358.65647726 384.72898329 -363.15625 384.25 C-364.09519104 384.15651779 -365.03413208 384.06303558 -366.00152588 383.96672058 C-368.07111098 383.76014418 -370.14037464 383.55032879 -372.20935059 383.33773804 C-377.96609706 382.74689045 -383.72533831 382.18129628 -389.484375 381.61328125 C-390.74969055 381.4879451 -392.0150061 381.36260895 -393.31866455 381.23347473 C-410.57344853 379.53059451 -427.84316682 377.98642634 -445.11129761 376.42602539 C-448.63190862 376.10777991 -452.15245757 375.78885066 -455.67300797 375.46993542 C-464.78184403 374.6448343 -473.89084822 373.82160829 -483 373 C-483.0402127 363.55700036 -483.02853431 354.13860058 -482.59765625 344.703125 C-482.55590775 343.71627716 -482.51415924 342.72942932 -482.47114563 341.712677 C-482.38285543 339.62681219 -482.29315578 337.54100659 -482.2020874 335.45526123 C-481.46072698 318.43184951 -480.8099105 301.40910169 -480.375 284.375 C-480.35462677 283.5771106 -480.33425354 282.77922119 -480.31326294 281.95715332 C-480.2041116 277.63820881 -480.09965459 273.31917562 -480 269 C-471.9393115 269.46301186 -464.39057122 270.60867714 -456.5703125 272.58984375 C-455.5129892 272.85004303 -454.45566589 273.11024231 -453.36630249 273.37832642 C-449.95011577 274.22195837 -446.53752799 275.07919914 -443.125 275.9375 C-440.75467315 276.52707731 -438.3842293 277.11618444 -436.01367188 277.70483398 C-421.82099057 281.23994423 -407.64757143 284.85091555 -393.5 288.5625 C-392.3592099 288.86122513 -392.3592099 288.86122513 -391.19537354 289.16598511 C-389.03550166 289.73327882 -386.87673566 290.30448125 -384.71875 290.87890625 C-384.05438934 291.05572433 -383.39002869 291.23254242 -382.70553589 291.41471863 C-377.38966382 292.85064664 -372.16106712 294.51252913 -366.94726562 296.28100586 C-363.55201889 297.10928631 -360.48191544 297.11973836 -357 297 C-356.59797363 296.19071045 -356.19594727 295.3814209 -355.78173828 294.54760742 C-348.02213142 278.94094591 -340.23067623 263.365065 -332 248 C-331.10194824 246.32059812 -330.20389805 244.6411954 -329.30587769 242.96177673 C-327.99602822 240.51296447 -326.68495275 238.06480929 -325.3739624 235.61660767 C-324.37869006 233.75689505 -323.38480023 231.89644879 -322.39111328 230.03588867 C-317.07570844 220.09284379 -317.07570844 220.09284379 -314.71875 215.96484375 C-308.82444979 205.48747537 -304.41064015 194.36057666 -299.84564209 183.26017761 C-291.86724521 163.86724521 -291.86724521 163.86724521 -290 162 C-283.57614916 161.77673891 -277.46373464 162.30694458 -271.10913086 163.19335938 C-269.69266014 163.383554 -269.69266014 163.383554 -268.24757385 163.57759094 C-266.2126101 163.85161067 -264.17801048 164.1283459 -262.14375114 164.407547 C-258.91968396 164.84994673 -255.69469348 165.28495824 -252.46937561 165.71813965 C-245.62451596 166.63882428 -238.78095551 167.56894455 -231.9375 168.5 C-223.99986117 169.57931417 -216.06172282 170.65471393 -208.12240791 171.72163391 C-204.95338375 172.14936107 -201.78528072 172.58349454 -198.61717224 173.01794434 C-196.66531374 173.28114516 -194.71341652 173.54405909 -192.76147461 173.80664062 C-191.88800385 173.92820023 -191.01453308 174.04975983 -190.11459351 174.17500305 C-180.49407888 175.83173902 -180.49407888 175.83173902 -171.84765625 172.6640625 C-170.89794678 171.67100529 -169.96953178 170.65718411 -169.0625 169.625 C-168.58232422 169.11710938 -168.10214844 168.60921875 -167.60742188 168.0859375 C-165.80186936 166.15050744 -164.1893168 164.37863359 -163 162 C-162.34 162 -161.68 162 -161 162 C-160.67 161.01 -160.34 160.02 -160 159 C-159.34 159 -158.68 159 -158 159 C-157.77441406 158.44570313 -157.54882812 157.89140625 -157.31640625 157.3203125 C-155.61133714 154.31493845 -153.42200049 152.27012997 -150.9375 149.875 C-147.53546517 146.75894235 -147.53546517 146.75894235 -145 143 C-144.34 143 -143.68 143 -143 143 C-142.67 142.01 -142.34 141.02 -142 140 C-141.34 140 -140.68 140 -140 140 C-139.73195557 139.40525879 -139.46391113 138.81051758 -139.18774414 138.19775391 C-137.99020301 135.98187204 -136.79681017 134.57920472 -134.99609375 132.8359375 C-134.13274414 131.98902344 -134.13274414 131.98902344 -133.25195312 131.125 C-132.65318359 130.5475 -132.05441406 129.97 -131.4375 129.375 C-130.24650616 128.21839849 -129.05759995 127.05964222 -127.87109375 125.8984375 C-127.34443115 125.38974121 -126.81776855 124.88104492 -126.27514648 124.35693359 C-124.8835783 123.00599895 -124.8835783 123.00599895 -124 121 C-123.34 121 -122.68 121 -122 121 C-121.77441406 120.44570313 -121.54882812 119.89140625 -121.31640625 119.3203125 C-119.61133714 116.31493845 -117.42200049 114.27012997 -114.9375 111.875 C-111.53546517 108.75894235 -111.53546517 108.75894235 -109 105 C-108.34 105 -107.68 105 -107 105 C-106.7421875 104.42765625 -106.484375 103.8553125 -106.21875 103.265625 C-104.88634058 100.78871005 -103.34943882 98.8658834 -101.5 96.75 C-100.8915625 96.04359375 -100.283125 95.3371875 -99.65625 94.609375 C-98 93 -98 93 -96 93 C-95.76667969 92.43796875 -95.53335937 91.8759375 -95.29296875 91.296875 C-93.68062924 88.43265858 -91.6806438 86.52747979 -89.3125 84.25 C-84.06472857 79.10824415 -79.17357917 73.81977838 -74.6875 68 C-74.130625 67.34 -73.57375 66.68 -73 66 C-72.34 66 -71.68 66 -71 66 C-70.62875 65.13375 -70.62875 65.13375 -70.25 64.25 C-68.83316683 61.6997003 -67.12372463 59.98214299 -65 58 C-67.61042309 55.9690206 -70.21257186 54.25118374 -73.125 52.6875 C-76.4251803 50.88642121 -79.66290378 49.0163547 -82.875 47.0625 C-86.44997539 44.89635448 -90.06882297 42.85525377 -93.75 40.875 C-101.82648629 36.48734858 -101.82648629 36.48734858 -105 34 C-105 33.01 -105 32.02 -105 31 C-104.38138596 30.80558319 -103.76277191 30.61116638 -103.12541199 30.41085815 C-96.44589147 28.31114382 -89.76730046 26.20848853 -83.0892334 24.10415649 C-80.49398383 23.28641194 -77.89851044 22.46938348 -75.30285645 21.65292358 C-61.78086606 17.39874087 -48.26910343 13.12215443 -34.81640625 8.65234375 C-33.81784103 8.32167908 -32.81927582 7.9910144 -31.79045105 7.65032959 C-27.13527768 6.10782991 -22.48475684 4.55331248 -17.84057617 2.97802734 C-16.19074963 2.42888951 -14.54077502 1.88019627 -12.890625 1.33203125 C-12.15675064 1.07775864 -11.42287628 0.82348602 -10.66676331 0.56150818 C-6.74289614 -0.72746424 -3.97927698 -1.28043645 0 0 Z " fill="#FFFFFF" transform="translate(736,378)"/>
<path d="M0 0 C3.43990612 0.00530069 6.87967823 0.00006041 10.31958008 -0.00634766 C21.82464585 -0.01025902 33.31228387 0.14342809 44.80981445 0.57568359 C46.42820976 0.63379715 46.42820976 0.63379715 48.07929993 0.69308472 C49.55598396 0.75509567 49.55598396 0.75509567 51.0625 0.81835938 C52.3661274 0.87215256 52.3661274 0.87215256 53.6960907 0.92703247 C55.6730957 1.13037109 55.6730957 1.13037109 56.6730957 2.13037109 C56.77316053 4.05006281 56.80109823 5.97351559 56.80249023 7.89581299 C56.80559708 9.16409187 56.80870392 10.43237076 56.81190491 11.73908234 C56.81008785 13.1732231 56.80808147 14.60736364 56.8059082 16.04150391 C56.80697131 17.56341324 56.80835938 19.08532237 56.81004333 20.60723114 C56.81291945 24.85760566 56.80830935 29.10794401 56.80186844 33.35831356 C56.79807016 36.10194636 56.79601646 38.84557562 56.79440308 41.58921051 C56.75754025 95.42096807 56.24401146 149.2513106 55.78233242 203.08075476 C55.69582697 213.17394068 55.61112981 223.26714069 55.52758789 233.36035156 C55.5186269 234.44289125 55.5186269 234.44289125 55.50948489 235.54730043 C55.47949287 239.17160068 55.44952956 242.79590117 55.41958046 246.42020178 C55.17519407 275.99029609 54.92585707 305.56034712 54.6730957 335.13037109 C51.73694468 336.5984466 48.72141591 336.40685009 45.49560547 336.51928711 C44.38514862 336.56339722 44.38514862 336.56339722 43.2522583 336.60839844 C40.78982628 336.70495598 38.32719951 336.79476738 35.86450195 336.88427734 C34.14166645 336.9498097 32.41884248 337.01564592 30.69602966 337.08177185 C27.06861541 337.21997131 23.44109886 337.35492527 19.81347656 337.48754883 C15.21907111 337.65570298 10.62497373 337.83098289 6.03093052 338.00872898 C2.4608097 338.14614929 -1.1094396 338.27996842 -4.67973518 338.4127636 C-6.36942329 338.47595349 -8.05907555 338.54011116 -9.74868584 338.60534859 C-21.61354179 339.0603883 -33.45356141 339.20474352 -45.3269043 339.13037109 C-46.59737922 336.58942125 -46.38408886 334.96607052 -46.2836771 332.1251421 C-46.23158933 330.53614115 -46.23158933 330.53614115 -46.17844927 328.91503918 C-46.13491395 327.74858361 -46.09137862 326.58212803 -46.04652405 325.38032532 C-46.00533585 324.15835256 -45.96414765 322.93637981 -45.92171133 321.67737758 C-45.83150458 319.01261808 -45.73945719 316.34799288 -45.64444435 313.68340719 C-45.41390522 307.20521769 -45.20094027 300.72643705 -44.98645464 294.2476998 C-44.91175905 291.99497565 -44.83649333 289.74227098 -44.76121396 287.48956627 C-44.26789482 272.65951594 -43.85999251 257.82759265 -43.47314453 242.99438477 C-43.43927741 241.70341625 -43.40541029 240.41244773 -43.3705169 239.08235896 C-43.19559339 232.4111066 -43.02201169 225.73982104 -42.84963799 219.06850243 C-42.64798186 211.26440914 -42.44353197 203.46039056 -42.23840845 195.65638772 C-41.90464205 182.95804545 -41.57183367 170.25967835 -41.24023438 157.5612793 C-41.21092289 156.43885632 -41.21092289 156.43885632 -41.18101925 155.29375813 C-40.90088388 144.56453242 -40.62188984 133.83527732 -40.34333701 123.10601041 C-40.32349283 122.3416593 -40.30364864 121.57730819 -40.28320312 120.78979492 C-40.25347595 119.64473358 -40.25347595 119.64473358 -40.22314822 118.47653969 C-39.89239747 105.73918662 -39.55881171 93.00190968 -39.22288281 80.26469213 C-39.01746886 72.471915 -38.81439187 64.67908419 -38.61444569 56.88616482 C-38.46205568 50.9548778 -38.30585055 45.02369515 -38.14823532 39.09254456 C-38.08446915 36.66982654 -38.0219616 34.24707502 -37.96082115 31.82428932 C-37.8771013 28.51391918 -37.78882466 25.20369994 -37.69944763 21.89347839 C-37.67648807 20.94226095 -37.65352852 19.9910435 -37.62987322 19.01100129 C-37.46181165 13.01359124 -37.00455866 7.09163742 -36.3269043 1.13037109 C-24.22882943 -0.07299469 -12.14500768 -0.0221702 0 0 Z " fill="#FFFFFF" transform="translate(676.326904296875,521.86962890625)"/>
<path d="M0 0 C3.19118691 -0.12077871 6.38086638 -0.20444364 9.57351685 -0.27438354 C10.47686768 -0.31371002 11.38021851 -0.3530365 12.3109436 -0.39355469 C19.70674555 -0.48104895 23.62242938 2.29780573 28.87991333 7.23782349 C29.32536499 7.74555298 29.77081665 8.25328247 30.22976685 8.77639771 C33.39325364 12.20130541 36.84418979 15.01016585 40.5461731 17.83108521 C41.12012817 18.27798706 41.69408325 18.72488892 42.28543091 19.18533325 C47.20257142 23.01295955 52.18764462 26.74960501 57.19070435 30.46389771 C59.4211731 32.14358521 59.4211731 32.14358521 60.4211731 33.14358521 C60.64361731 34.77249 60.80520664 36.40981995 60.9392395 38.04837036 C61.06289886 39.54753998 61.06289886 39.54753998 61.1890564 41.07699585 C61.75442783 48.54635075 62.22154835 56.01778747 62.62576294 63.49758911 C62.74000923 65.52292386 62.86447396 67.54770635 62.99880981 69.57180786 C63.19315947 72.51936513 63.35360445 75.46709125 63.5071106 78.41702271 C63.57352753 79.31915497 63.63994446 80.22128723 63.70837402 81.15075684 C63.98465848 87.42824202 63.98465848 87.42824202 61.20169067 90.96121216 C60.28411987 91.68139526 59.36654907 92.40157837 58.4211731 93.14358521 C56.89532676 94.69067151 55.37059482 96.23885767 53.84695435 97.78811646 C52.14265433 99.51089842 50.43822381 101.23355129 48.7336731 102.95608521 C47.86677856 103.83973755 46.99988403 104.72338989 46.10671997 105.63381958 C44.86438599 106.88582153 44.86438599 106.88582153 43.59695435 108.16311646 C42.46640625 109.309375 42.46640625 109.309375 41.3130188 110.47879028 C39.4211731 112.14358521 39.4211731 112.14358521 37.4211731 112.14358521 C37.17133667 112.72011841 36.92150024 113.29665161 36.66409302 113.89065552 C35.24759277 116.45821872 33.63195343 118.14348288 31.53445435 120.19046021 C30.3733313 121.33514771 30.3733313 121.33514771 29.18875122 122.50296021 C28.37857544 123.29186646 27.56839966 124.08077271 26.7336731 124.89358521 C25.14394253 126.44833392 23.55667387 128.00560416 21.97195435 129.56546021 C21.18901001 130.32407349 20.40606567 131.08268677 19.59939575 131.86428833 C17.39682894 134.05877271 17.39682894 134.05877271 15.77029419 136.46975708 C13.35377511 139.86971678 11.74540932 141.89668946 7.51712036 142.68502808 C6.39748901 142.73290466 5.27785767 142.78078125 4.1242981 142.83010864 C2.87448654 142.89019104 1.62467499 142.95027344 0.33699036 143.01217651 C-0.95522934 143.05554138 -2.24744904 143.09890625 -3.5788269 143.14358521 C-4.78713669 143.19194519 -5.99544647 143.24030518 -7.2403717 143.29013062 C-11.03381221 143.4296166 -14.82721729 143.53982323 -18.62179565 143.64358521 C-20.00708631 143.68421667 -21.39236552 143.72524034 -22.77763367 143.76663208 C-28.58661465 143.93949412 -34.3957965 144.10507926 -40.20504761 144.26858521 C-43.78743938 144.36968945 -47.3696812 144.47517322 -50.95186806 144.58328247 C-52.96537644 144.64265869 -54.97903488 144.69687385 -56.99269104 144.75100708 C-58.81653069 144.8061145 -58.81653069 144.8061145 -60.67721558 144.86233521 C-61.74751511 144.89262817 -62.81781464 144.92292114 -63.92054749 144.95413208 C-66.68316278 145.04059329 -66.68316278 145.04059329 -69.5788269 146.14358521 C-69.58913437 146.78029648 -69.59944183 147.41700775 -69.61006165 148.07301331 C-69.71789021 154.67485318 -69.83250651 161.27654999 -69.95114136 167.87820435 C-69.99456634 170.34497089 -70.03623562 172.81176898 -70.07614136 175.27859497 C-70.13366136 178.81571987 -70.19740765 182.35268486 -70.26242065 185.88967896 C-70.27913315 187.00008041 -70.29584564 188.11048187 -70.31306458 189.25453186 C-70.3330098 190.27551468 -70.35295502 191.2964975 -70.37350464 192.34841919 C-70.38904892 193.2522081 -70.4045932 194.15599701 -70.42060852 195.08717346 C-70.5788269 197.14358521 -70.5788269 197.14358521 -71.5788269 198.14358521 C-73.93196245 198.21630262 -76.28716359 198.22729388 -78.6413269 198.20608521 C-79.93167847 198.19706177 -81.22203003 198.18803833 -82.55148315 198.17874146 C-84.05001831 198.16133911 -84.05001831 198.16133911 -85.5788269 198.14358521 C-86.98391755 193.65398606 -88.01591459 189.15837264 -88.9460144 184.54592896 C-89.19222534 183.33227661 -89.43843628 182.11862427 -89.69210815 180.86819458 C-90.20037474 178.34119738 -90.70036523 175.81252162 -91.19210815 173.28225708 C-93.12715159 163.85268015 -95.22248146 158.10470715 -103.27023315 152.46389771 C-119.38664652 143.24672729 -142.97306183 147.33556401 -160.5788269 148.14358521 C-160.56359985 147.14181747 -160.5483728 146.14004974 -160.53268433 145.10792542 C-160.39464322 131.53383919 -161.11835817 118.03929211 -161.8913269 104.49124146 C-162.02636605 102.05470088 -162.16087759 99.618131 -162.29489136 97.18153381 C-162.64585882 90.81859186 -163.0021665 84.45596223 -163.36019897 78.09341431 C-163.93412085 67.88875647 -164.50241652 57.68379264 -165.06573486 47.47854424 C-165.26244459 43.93615492 -165.46306635 40.39400247 -165.66403198 36.85185242 C-165.78552291 34.66663448 -165.90686844 32.48140845 -166.02804565 30.2961731 C-166.08415009 29.32606796 -166.14025452 28.35596283 -166.19805908 27.35646057 C-166.91602702 14.22894749 -166.91602702 14.22894749 -166.5788269 8.14358521 C-164.80010201 6.36486031 -162.17603326 6.82196937 -159.7585144 6.67874146 C-158.46921021 6.6021228 -157.17990601 6.52550415 -155.85153198 6.44656372 C-154.38566151 6.36583523 -152.91975825 6.28570066 -151.4538269 6.20608521 C-150.69234344 6.16345551 -149.93085999 6.12082581 -149.14630127 6.0769043 C-132.27273005 5.13906456 -115.38718446 4.54985535 -98.4982605 3.96853638 C-84.60941675 3.48745586 -70.72468446 2.95037332 -56.84054565 2.35061646 C-55.22684345 2.28127781 -53.61314004 2.21196732 -51.99943542 2.14268494 C-42.47132529 1.73284172 -42.47132529 1.73284172 -32.94372559 1.31134033 C-24.41679538 0.929469 -15.88989973 0.57288513 -7.35955811 0.2756958 C-4.90614875 0.18996599 -2.45293332 0.09841351 0 0 Z M-23.11398315 43.23733521 C-24.60325446 43.34972985 -26.0925483 43.46182614 -27.5818634 43.57363892 C-31.47329256 43.86659017 -35.36440512 44.16355406 -39.25546265 44.46139526 C-43.2374141 44.765466 -47.21965583 45.0656847 -51.20187378 45.36624146 C-58.9944783 45.95495001 -66.78675195 46.54790402 -74.5788269 47.14358521 C-74.62613487 58.7788498 -74.62760036 70.39156914 -74.1413269 82.01858521 C-74.1020105 83.10526489 -74.06269409 84.19194458 -74.02218628 85.31155396 C-73.81006006 90.65713457 -73.47322423 95.86739255 -72.5788269 101.14358521 C-65.90536414 101.36379113 -59.89901433 100.82415726 -53.3913269 99.39358521 C-42.56685486 97.15672307 -31.67800203 95.77383652 -20.71286011 94.45120239 C-18.78446289 94.21578735 -18.78446289 94.21578735 -16.81710815 93.97561646 C-15.66251099 93.83873413 -14.50791382 93.70185181 -13.31832886 93.56082153 C-10.62348771 93.29401713 -10.62348771 93.29401713 -8.5788269 92.14358521 C-7.68260944 89.71823378 -7.68260944 89.71823378 -6.95773315 86.73733521 C-6.66326294 85.60835815 -6.36879272 84.4793811 -6.06539917 83.31619263 C-5.76045532 82.10423218 -5.45551147 80.89227173 -5.1413269 79.64358521 C-4.82929321 78.41937866 -4.51725952 77.19517212 -4.19577026 75.93386841 C0.14046132 59.24773507 0.14046132 59.24773507 1.4211731 42.14358521 C-6.79573734 41.98441987 -14.92847414 42.60607253 -23.11398315 43.23733521 Z " fill="#FFFFFF" transform="translate(648.5788269042969,190.85641479492188)"/>
<path d="M0 0 C1.35705949 22.08571687 2.46170827 44.18096369 3.49176025 66.28411865 C4.33034273 84.27106098 5.20963083 102.25546435 6.13194466 120.23832512 C6.30483177 123.61219039 6.47704818 126.98608921 6.64903259 130.36000061 C6.7345606 132.03741538 6.7345606 132.03741538 6.82181644 133.74871731 C6.93726825 136.01303744 7.05270287 138.27735845 7.16812038 140.54168034 C7.50992386 147.23824761 7.85623113 153.93456409 8.20562744 160.63073921 C8.42601736 164.87533653 8.64212706 169.12014478 8.85722733 173.36501312 C8.95810394 175.33806402 9.06073489 177.31102623 9.16535568 179.28388214 C9.84940533 192.20232048 10.12432872 205.06353357 10 218 C6.8171838 219.5914081 3.34107234 219.33294306 -0.16235352 219.48071289 C-1.00650314 219.5198732 -1.85065277 219.55903351 -2.72038269 219.59938049 C-5.52304217 219.7282311 -8.32594604 219.85053648 -11.12890625 219.97265625 C-13.07748412 220.06057065 -15.02604659 220.14882709 -16.97459412 220.2374115 C-21.06766015 220.42254228 -25.16084599 220.60464175 -29.25415039 220.78442383 C-34.48401354 221.01420443 -39.71360033 221.24966645 -44.94311619 221.48720646 C-48.97265735 221.66990107 -53.00229352 221.85042091 -57.03196526 222.03021049 C-58.95877063 222.11626833 -60.88555554 222.20278578 -62.8123188 222.28978157 C-65.51875426 222.41147531 -68.22529574 222.53045864 -70.93188477 222.64868164 C-71.71925018 222.68451355 -72.5066156 222.72034546 -73.31784058 222.75726318 C-78.54980054 222.98199039 -83.76314292 223.02923485 -89 223 C-90.47994161 201.56756984 -91.77471496 180.12810411 -92.98721814 158.67908502 C-93.22994903 154.39058711 -93.4743311 150.10218324 -93.7184906 145.81376648 C-94.12701796 138.63444408 -94.53447915 131.45506187 -94.94116211 124.27563477 C-95.4598098 115.11969895 -95.98018981 105.96386246 -96.5011301 96.80805683 C-96.95439432 88.84158186 -97.40694742 80.87506651 -97.85934711 72.90854239 C-98.0023898 70.38998154 -98.14551101 67.87142515 -98.28863716 65.35286903 C-99.9793103 35.59255928 -99.9793103 35.59255928 -100.62084961 23.67651367 C-100.6604181 22.95697415 -100.69998659 22.23743464 -100.74075413 21.49609089 C-101.0141209 16.32290521 -101.08490199 11.17902143 -101 6 C-99.87360107 5.96036133 -98.74720215 5.92072266 -97.58666992 5.87988281 C-71.72092072 4.94915492 -45.95232401 3.45408773 -20.15698242 1.32128906 C-19.10485062 1.23430756 -18.05271881 1.14732605 -16.96870422 1.05770874 C-14.99691519 0.89354232 -13.02529394 0.72734313 -11.05387878 0.55874634 C-9.74306084 0.44821426 -9.74306084 0.44821426 -8.40576172 0.33544922 C-7.64738007 0.27042206 -6.88899841 0.2053949 -6.1076355 0.13839722 C-4.07561057 0.00496494 -2.03640111 0 0 0 Z " fill="#FFFFFF" transform="translate(537,646)"/>
<path d="M0 0 C12.696735 -0.63802688 26.37365114 4.13662545 36.3203125 11.84765625 C44.97985182 19.72839332 49.38071372 32.23923919 50.140625 43.71875 C50.9091421 64.81803769 49.49812599 81.93618688 39.33203125 100.7578125 C38.46795226 102.37196905 37.60466261 103.9865484 36.7421875 105.6015625 C36.32130859 106.38273437 35.90042969 107.16390625 35.46679688 107.96875 C34.34551889 110.11253107 33.32422623 112.28319901 32.3046875 114.4765625 C30.34494415 118.4186484 27.82102078 121.24664784 24.64453125 124.2578125 C24.11746582 124.76981201 23.59040039 125.28181152 23.04736328 125.80932617 C15.40397657 133.13395075 7.00319789 139.30598042 -1.73046875 145.2578125 C-2.71402344 145.95390625 -3.69757813 146.65 -4.7109375 147.3671875 C-9.77056939 150.88135515 -14.35913623 153.88383459 -20.3125 155.54296875 C-24.49241424 156.77871076 -28.48581433 158.52850885 -32.51953125 160.171875 C-49.44101524 165.89471265 -66.37140105 161.58026157 -81.84130859 154.19580078 C-94.68044829 147.8210302 -108.43495214 137.05677545 -116.73046875 125.2578125 C-117.72097287 122.01703689 -118.00973561 120.87840552 -116.60546875 117.7578125 C-111.92120708 111.51213027 -104.27880856 102.93336265 -96.73046875 100.2578125 C-91.72821021 100.68189608 -88.83448014 104.66329067 -85.73046875 108.2578125 C-85.27671875 109.1034375 -84.82296875 109.9490625 -84.35546875 110.8203125 C-80.60438045 116.44694495 -74.41332486 119.41654519 -67.9543457 120.88500977 C-56.95235142 122.72934452 -44.69310766 122.51933117 -34.73046875 117.2578125 C-33.76109375 116.76023437 -32.79171875 116.26265625 -31.79296875 115.75 C-16.38963288 107.30174181 -5.83277215 96.34003973 1.26953125 80.2578125 C1.80578125 79.0615625 2.34203125 77.8653125 2.89453125 76.6328125 C6.31917932 67.02422848 9.12590796 54.37392321 6.51953125 44.3828125 C4.70244301 41.2937625 2.48756066 39.6903012 -0.88671875 38.4921875 C-8.92110762 36.83174713 -16.60256707 37.17508419 -24.54296875 39.2578125 C-28.19834901 39.2578125 -28.57591152 38.92789003 -31.10546875 36.5078125 C-32.34354231 35.11706171 -33.54885049 33.69683723 -34.73046875 32.2578125 C-35.81714844 30.95263672 -35.81714844 30.95263672 -36.92578125 29.62109375 C-38.46433695 27.75135741 -39.9917042 25.87235892 -41.5078125 23.984375 C-44.07696747 20.83275784 -46.76830507 17.8129162 -49.515625 14.81640625 C-50.73046875 13.2578125 -50.73046875 13.2578125 -50.73046875 11.2578125 C-33.86325262 5.34459305 -17.78901295 1.67964929 0 0 Z " fill="#FFFFFF" transform="translate(507.73046875,342.7421875)"/>
<path d="M0 0 C3.61497739 1.47158371 5.40591511 3.41462331 7.75 6.5 C8.36359375 7.2940625 8.9771875 8.088125 9.609375 8.90625 C11 11 11 11 11 13 C11.76441406 12.69707031 12.52882813 12.39414062 13.31640625 12.08203125 C16.86728661 10.69329946 20.42987287 9.33823292 24 8 C24.61987793 7.76522949 25.23975586 7.53045898 25.87841797 7.28857422 C41.78867356 1.33626683 55.45040319 0.60881474 71.37109375 6.74609375 C75.80723143 8.861993 79.36362709 11.72525534 83 15 C83.68964844 15.62003906 84.37929688 16.24007813 85.08984375 16.87890625 C89.57814644 21.14322454 93.12751277 25.74970523 96.5546875 30.8984375 C97.96653599 33.08782541 97.96653599 33.08782541 100 35 C99.8728591 38.32777492 99.24422679 39.7305412 96.99609375 42.2109375 C95.72958984 43.28214844 95.72958984 43.28214844 94.4375 44.375 C93.53644531 45.14714844 92.63539063 45.91929687 91.70703125 46.71484375 C90.81371094 47.46894531 89.92039062 48.22304688 89 49 C87.54031194 50.31099318 86.08183176 51.6233335 84.625 52.9375 C82.22568179 55.09688639 80.02436462 56.81141226 77 58 C76.34 57.67 75.68 57.34 75 57 C75 56.34 75 55.68 75 55 C74.01 55 73.02 55 72 55 C70.15473038 52.37403939 69.01624151 50.04872454 68 47 C66.18396753 45.87786793 66.18396753 45.87786793 64 45 C63.31164062 44.64679688 62.62328125 44.29359375 61.9140625 43.9296875 C54.29380974 40.41864954 46.09807674 38.94206295 37.95556641 41.68994141 C29.44226241 45.19261467 21.98841516 50.03889538 15 56 C13.4208169 57.2137523 11.83744585 58.42207458 10.25 59.625 C4.52271745 64.11153677 0.41102873 68.61033075 -3.375 74.81640625 C-5 77 -5 77 -7.39453125 78.75390625 C-10.9246072 81.79707517 -12.60975727 85.2549105 -14.6875 89.375 C-15.07744141 90.1175 -15.46738281 90.86 -15.86914062 91.625 C-19.88971131 99.4049761 -22.67305422 107.11141087 -22 116 C-20.70831587 119.41289017 -19.16781111 122.44220487 -17.34765625 125.6015625 C-16 128 -16 128 -16 130 C-15.071875 130.28875 -14.14375 130.5775 -13.1875 130.875 C-10 132 -10 132 -7 134 C-4.58465349 134.63106952 -4.58465349 134.63106952 -2 135 C-1.25363281 135.12503906 -0.50726563 135.25007812 0.26171875 135.37890625 C8.1183603 135.9735313 13.95498665 133.15577156 20.80541992 129.67016602 C21.54896729 129.30205811 22.29251465 128.9339502 23.05859375 128.5546875 C23.72173584 128.20905762 24.38487793 127.86342773 25.06811523 127.50732422 C27 127 27 127 29.13452148 127.77807617 C31.52974698 129.34699432 32.90456837 131.14969198 34.625 133.4375 C38.43337617 138.36766802 42.53327148 142.92154598 46.80078125 147.45703125 C48.87842547 149.85942271 50.46262563 152.22874587 52 155 C35.3796484 167.12468272 18.75193911 173.22072005 -2 171 C-10.5825722 169.42432777 -17.91802487 166.04665118 -25 161 C-26.10408203 160.24203125 -26.10408203 160.24203125 -27.23046875 159.46875 C-41.99929608 147.96736234 -49.95670296 127.17578165 -52.55859375 109.203125 C-54.78222641 90.688324 -47.75013713 69.71526922 -36.4375 54.9375 C-35.30778868 53.61109787 -34.16285419 52.2974438 -33 51 C-32.505 50.39929688 -32.01 49.79859375 -31.5 49.1796875 C-22.24179554 38.11613317 -11.85809018 28.20944705 0 20 C-11.98591968 26.82164567 -21.41753753 36.19468956 -31 46 C-32.66666667 44.33333333 -34.33333333 42.66666667 -36 41 C-36.598125 40.443125 -37.19625 39.88625 -37.8125 39.3125 C-39 38 -39 38 -39 36 C-40.32 36 -41.64 36 -43 36 C-42.32960949 30.79869433 -38.53379645 28.84347258 -34.640625 25.765625 C-29.48029406 21.8146549 -24.24270872 17.96514445 -18.99072266 14.13720703 C-14.23499429 10.67029394 -9.55389792 7.12881035 -4.93212891 3.48486328 C-3.33600802 2.25822603 -1.67493209 1.11662139 0 0 Z M2 17 C1.67 17.66 1.34 18.32 1 19 C1.99 18.67 2.98 18.34 4 18 C3.34 17.67 2.68 17.34 2 17 Z " fill="#FFFFFF" transform="translate(373,257)"/>
<path d="M0 0 C8.00245187 7.74430826 15.16522854 16.22163063 22 25 C22.73605469 25.94101562 23.47210938 26.88203125 24.23046875 27.8515625 C29.88130714 35.13404591 35.35767529 42.53703188 40.8112793 49.96801758 C46.33604289 57.4846257 51.99571024 64.88490055 57.74609375 72.23046875 C58.28363281 72.91753906 58.82117188 73.60460937 59.375 74.3125 C60.19291016 75.35664063 60.19291016 75.35664063 61.02734375 76.421875 C62.64890538 78.54114367 64.23822533 80.67667546 65.81640625 82.828125 C70.57912955 89.30147297 75.18147675 95.4943532 81.0625 101.0078125 C84.40710258 104.44681918 87.12981446 108.35430957 89.9375 112.234375 C91.59282018 114.45400888 93.26902522 116.39396625 95.1875 118.375 C95.785625 119.24125 96.38375 120.1075 97 121 C95.87017692 126.11004948 93.26681643 130.10674842 90.375 134.375 C89.92769531 135.03693359 89.48039063 135.69886719 89.01953125 136.38085938 C82.97347408 145.13989092 75.92241564 151.23609038 67 157 C66.32324219 157.44859375 65.64648438 157.8971875 64.94921875 158.359375 C62.58925477 159.83498417 60.61412419 160.94736078 57.8125 161.1875 C55.40186299 159.60811713 54.54279237 157.49210024 53.1706543 155.02124023 C51.14630997 151.52602716 48.81131695 148.24702877 46.5 144.9375 C45.55169268 143.57188578 44.60376977 142.20600453 43.65625 140.83984375 C43.2022583 140.18717529 42.7482666 139.53450684 42.28051758 138.86206055 C41.13710693 137.19937361 40.02528346 135.51506598 38.91796875 133.828125 C37.01245124 131.01835988 34.98099964 128.42338936 32.8125 125.8125 C30.46293036 122.98077112 28.11947769 120.15096459 25.8359375 117.265625 C21.35048145 111.62210575 16.59374163 106.5144471 11.45092773 101.48510742 C6.54895894 96.64888434 2.24748756 91.41755018 -2 86 C-3.28979378 84.37351306 -4.58144152 82.74849445 -5.875 81.125 C-6.52597656 80.30773437 -7.17695313 79.49046875 -7.84765625 78.6484375 C-10.29034665 75.64273135 -12.79749255 72.69504376 -15.3125 69.75 C-19.6714256 64.63984886 -23.86367722 59.42019488 -27.99072266 54.12158203 C-32.23750084 48.6728565 -36.59874931 43.32496997 -41 38 C-34.73803893 20.58869362 -15.52339335 8.44696359 0 0 Z " fill="#FFFFFF" transform="translate(410,300)"/>
<path d="M0 0 C1.81620425 9.72030394 2.825984 19.46868784 3.7265625 29.3046875 C3.88044739 30.95795508 4.03453466 32.61120383 4.18881226 34.26443481 C4.50940106 37.71166552 4.82663242 41.15918507 5.14160156 44.60693359 C5.54212659 48.98680632 5.95247635 53.36569472 6.36556435 57.74439812 C6.68581427 61.15356525 7.00003124 64.56326946 7.312603 67.97314835 C7.46130231 69.58617707 7.61195854 71.19902682 7.76475906 72.81167221 C8.68725339 82.58255659 9.20639483 92.17558147 9 102 C1.12335471 102.9956509 -6.74809334 103.39641985 -14.67578125 103.75390625 C-16.09149471 103.81956342 -17.50719994 103.88539832 -18.92289734 103.95140076 C-21.87877228 104.08854516 -24.8347325 104.22361708 -27.79077148 104.35717773 C-31.54599885 104.52700296 -35.30096948 104.70189489 -39.05589008 104.87835789 C-41.97719695 105.01508628 -44.89862274 105.14912466 -47.82008934 105.2823925 C-49.20296089 105.345776 -50.58579666 105.40994609 -51.96859169 105.47497749 C-60.31916532 105.86590888 -68.64011636 106.08712969 -77 106 C-77.04789169 105.12542145 -77.09578339 104.2508429 -77.14512634 103.34976196 C-77.60094469 95.02602571 -78.05683221 86.70229325 -78.51279354 78.37856483 C-78.74709132 74.10133691 -78.98136422 69.82410763 -79.21557617 65.546875 C-79.44245358 61.40360555 -79.66940167 57.26033999 -79.89639473 53.11707687 C-79.98211647 51.55220039 -80.06781456 49.98732261 -80.15348625 48.42244339 C-80.23524044 46.92917569 -80.31704067 45.4359105 -80.39888859 43.94264793 C-80.47853997 42.48851662 -80.55801749 41.03437576 -80.63731289 39.58022499 C-80.8460683 35.76169284 -81.06003775 31.9435299 -81.28079224 28.12567139 C-81.32693192 27.31953085 -81.37307161 26.51339031 -81.42060947 25.68282127 C-81.50858579 24.14849628 -81.59777883 22.61424034 -81.68845272 21.0800724 C-82.01360543 15.38116711 -82.11311958 9.70625413 -82 4 C-74.11860388 3.11216082 -66.24023527 2.63756774 -58.3203125 2.24609375 C-57.03115936 2.18092056 -55.74200623 2.11574738 -54.41378784 2.04859924 C-51.69927784 1.91169338 -48.98468474 1.77661397 -46.27001953 1.64282227 C-42.82532869 1.472872 -39.38090974 1.29797773 -35.9365406 1.12164211 C-32.60627309 0.95192648 -29.27578448 0.78674835 -25.9453125 0.62109375 C-24.72619171 0.55860947 -23.50707092 0.49612518 -22.25100708 0.43174744 C-14.82708335 0.07052044 -7.43244709 -0.07602344 0 0 Z " fill="#FFFFFF" transform="translate(344,771)"/>
<path d="M0 0 C1.15039081 1.15039081 2.30044707 2.30111734 3.44921875 3.453125 C4.50916662 4.51040298 5.57454233 5.56225995 6.64453125 6.609375 C10.4069296 10.31232236 13.92234997 14.15631091 17.375 18.1484375 C20.26571446 21.44218426 23.12408544 24.40278553 26.75 26.875 C29 29 29 29 30.0625 32.5 C30 36 30 36 28.3984375 37.93359375 C25.5880624 40.35491041 22.61558062 42.46558776 19.5625 44.5625 C8.27716149 52.47600859 -1.88860326 61.65860943 -12 71 C-15.55774104 69.79629761 -17.50787483 68.89624447 -19.5 65.6875 C-21.61251537 62.3301095 -24.15389442 59.76214966 -27 57 C-41.578125 42.6328125 -41.578125 42.6328125 -46 36 C-44.80117188 35.27296875 -44.80117188 35.27296875 -43.578125 34.53125 C-28.31944259 25.39187851 -28.31944259 25.39187851 -14.5234375 14.25 C-13 13 -13 13 -11 13 C-10.67 12.01 -10.34 11.02 -10 10 C-9.34 10 -8.68 10 -8 10 C-7.67 9.01 -7.34 8.02 -7 7 C-6.34 7 -5.68 7 -5 7 C-5 6.34 -5 5.68 -5 5 C-4.34 5 -3.68 5 -3 5 C-3 4.34 -3 3.68 -3 3 C-1.5 1.375 -1.5 1.375 0 0 Z " fill="#FFFFFF" transform="translate(541,461)"/>
<path d="M0 0 C-0.11910879 6.82789556 -0.2438768 13.65567205 -0.37231445 20.48339844 C-0.41524006 22.79913065 -0.45693831 25.11488599 -0.49731445 27.43066406 C-0.72276324 40.31186161 -1.01138599 53.15165688 -2 66 C-5.73139678 67.29348973 -9.46674624 68.57477184 -13.20605469 69.84521484 C-15.09787365 70.49074391 -16.9864685 71.14569688 -18.875 71.80078125 C-20.07382812 72.20683594 -21.27265625 72.61289062 -22.5078125 73.03125 C-23.60754395 73.40830078 -24.70727539 73.78535156 -25.84033203 74.17382812 C-29.03525979 75.00921953 -31.71411908 75.15585206 -35 75 C-36.86553024 67.66224772 -37.60119453 60.55184825 -38 53 C-38.11214844 51.79085937 -38.22429688 50.58171875 -38.33984375 49.3359375 C-38.88695715 40.3709566 -38.88695715 40.3709566 -36.4609375 36.62109375 C-34.40584153 34.59376934 -32.24455631 32.81306312 -30 31 C-28.80399499 29.69291893 -27.63627255 28.35932836 -26.5 27 C-23.48358077 23.48998489 -20.26904868 20.24948724 -16.97265625 17.00390625 C-15.0425437 15.04321766 -13.23265102 13.02180286 -11.4375 10.9375 C-2.01608911 0 -2.01608911 0 0 0 Z " fill="#FFFFFF" transform="translate(701,303)"/>
<path d="M0 0 C0.66 0.33 1.32 0.66 2 1 C1.01 1.99 0.02 2.98 -1 4 C-1.66 3.67 -2.32 3.34 -3 3 C-2.01 2.01 -1.02 1.02 0 0 Z " fill="#FFFFFF" transform="translate(549,514)"/>
<path d="M0 0 C0.33 0 0.66 0 1 0 C1 1.65 1 3.3 1 5 C0.67 5 0.34 5 0 5 C0 3.35 0 1.7 0 0 Z " fill="#FFFFFF" transform="translate(254,648)"/>
<path d="M0 0 C0.66 0.66 1.32 1.32 2 2 C1.34 2 0.68 2 0 2 C0 1.34 0 0.68 0 0 Z " fill="#FFFFFF" transform="translate(511,386)"/>
<path d="M0 0 C0.66 0 1.32 0 2 0 C1.67 0.66 1.34 1.32 1 2 C0.67 1.34 0.34 0.68 0 0 Z " fill="#FFFFFF" transform="translate(328,286)"/>
<path d="M0 0 C2 1 2 1 2 1 Z " fill="#FFFFFF" transform="translate(436,644)"/>
<path d="M0 0 C2 1 2 1 2 1 Z " fill="#FFFFFF" transform="translate(728,514)"/>
<path d="" fill="#FFFFFF" transform="translate(0,0)"/>
<path d="" fill="#FFFFFF" transform="translate(0,0)"/>
<path d="" fill="#FFFFFF" transform="translate(0,0)"/>
<path d="" fill="#FFFFFF" transform="translate(0,0)"/>
<path d="" fill="#FFFFFF" transform="translate(0,0)"/>
<path d="" fill="#FFFFFF" transform="translate(0,0)"/>
<path d="" fill="#FFFFFF" transform="translate(0,0)"/>
<path d="" fill="#FFFFFF" transform="translate(0,0)"/>
<path d="" fill="#FFFFFF" transform="translate(0,0)"/>
<path d="" fill="#FFFFFF" transform="translate(0,0)"/>
<path d="" fill="#FFFFFF" transform="translate(0,0)"/>
<path d="" fill="#FFFFFF" transform="translate(0,0)"/>
<path d="" fill="#FFFFFF" transform="translate(0,0)"/>
<path d="" fill="#FFFFFF" transform="translate(0,0)"/>
<path d="" fill="#FFFFFF" transform="translate(0,0)"/>
<path d="" fill="#FFFFFF" transform="translate(0,0)"/>
<path d="" fill="#FFFFFF" transform="translate(0,0)"/>
<path d="" fill="#FFFFFF" transform="translate(0,0)"/>
<path d="" fill="#FFFFFF" transform="translate(0,0)"/>
<path d="" fill="#FFFFFF" transform="translate(0,0)"/>
<path d="" fill="#FFFFFF" transform="translate(0,0)"/>
</svg>
